# xmcd CD database file
#
# Track frame offsets:
#	150
#	28216
#	51014
#	78290
#	98545
#	126068
#	144162
#	171395
#	192239
#	215101
#	234478
#	251363
#	266169
#
# Disc length: 3804 seconds
#
# Revision: 0
# Processed by: cddbd v1.5.2PL0 Copyright (c) Steve Scherf et al.
# Submitted via: CDex 1.51
#
DISCID=b20eda0d
DTITLE=Tropical Band - The New Sensation - La Nueva Sensación
DYEAR=2006
DGENRE=Salsa
TTITLE0=TropicalBand - El cuarto de tula
TTITLE1=TropicalBand - Kaquiri
TTITLE2=TropicalBand - El Amor
TTITLE3=TropicalBand - Suavemente
TTITLE4=TropicalBand - Esclavitud Perpetua
TTITLE5=TropicalBand - Suavesito
TTITLE6=TropicalBand - El yoyo
TTITLE7=TropicalBand - El Carnaval
TTITLE8=TropicalBand - Mentirosa
TTITLE9=TropicalBand - Si me dejas no vale
TTITLE10=TropicalBand - llararas
TTITLE11=TropicalBand - Rompo los cadenas
TTITLE12=TropicalBand - Brazil
EXTD=YEAR: 2006
EXTT0=
EXTT1=
EXTT2=
EXTT3=
EXTT4=
EXTT5=
EXTT6=
EXTT7=
EXTT8=
EXTT9=
EXTT10=
EXTT11=
EXTT12=
PLAYORDER=
